<?xml version="1.0" encoding="utf-8"?>
<!-- Generator: Adobe Illustrator 26.1.0, SVG Export Plug-In . SVG Version: 6.00 Build 0)  -->
<svg version="1.1" id="Calque_1" xmlns="http://www.w3.org/2000/svg" xmlns:xlink="http://www.w3.org/1999/xlink" x="0px" y="0px"
	 viewBox="0 0 16 11.2" style="enable-background:new 0 0 16 11.2;" xml:space="preserve">
<path d="M0.8,0c0.4,0,0.8,0.4,0.8,0.8v6.4h5.6v-4c0-0.4,0.4-0.8,0.8-0.8h5.6c1.3,0,2.4,1.1,2.4,2.4v5.6c0,0.4-0.4,0.8-0.8,0.8
	s-0.8-0.4-0.8-0.8V9.6H8.8H8H1.6v0.8c0,0.4-0.4,0.8-0.8,0.8S0,10.8,0,10.4V0.8C0,0.4,0.4,0,0.8,0z M4.4,2.4c1.1,0,2,0.9,2,2
	s-0.9,2-2,2s-2-0.9-2-2S3.3,2.4,4.4,2.4z"/>
</svg>
