<?xml version="1.0" encoding="utf-8"?>
<!-- Generator: Adobe Illustrator 26.1.0, SVG Export Plug-In . SVG Version: 6.00 Build 0)  -->
<svg version="1.1" id="Calque_1" xmlns="http://www.w3.org/2000/svg" xmlns:xlink="http://www.w3.org/1999/xlink" x="0px" y="0px"
	 width="40px" height="40px" viewBox="0 0 40 40" style="enable-background:new 0 0 40 40;" xml:space="preserve">
<style type="text/css">
	.st0{fill:#E8EAED;}
</style>
<path class="st0" d="M17,24.5l-4.9-4.9c-0.3-0.3-0.7-0.4-1.1-0.4c-0.4,0-0.8,0.2-1.2,0.5c-0.3,0.3-0.4,0.7-0.4,1.1
	c0,0.4,0.2,0.8,0.4,1.1L16,28c0.3,0.3,0.6,0.5,1,0.5c0.4,0,0.8-0.1,1.1-0.5L30,16.1c0.3-0.3,0.5-0.7,0.5-1.2s-0.2-0.8-0.5-1.1
	c-0.3-0.3-0.7-0.4-1.2-0.4s-0.8,0.2-1.1,0.5L17,24.5z M20,40c-2.7,0-5.3-0.5-7.8-1.6s-4.6-2.5-6.4-4.3s-3.2-3.9-4.3-6.4S0,22.7,0,20
	c0-2.8,0.5-5.4,1.6-7.8s2.5-4.5,4.3-6.3s3.9-3.2,6.4-4.3S17.3,0,20,0c2.8,0,5.4,0.5,7.8,1.6s4.5,2.5,6.4,4.3
	c1.8,1.8,3.2,3.9,4.3,6.3s1.6,5,1.6,7.8c0,2.7-0.5,5.3-1.6,7.8s-2.5,4.6-4.3,6.4c-1.8,1.8-3.9,3.2-6.4,4.3S22.8,40,20,40z M20,37
	c4.7,0,8.8-1.7,12-5c3.3-3.3,5-7.3,5-12c0-4.7-1.7-8.8-5-12.1S24.7,3,20,3c-4.7,0-8.7,1.7-12,4.9S3,15.3,3,20c0,4.7,1.7,8.7,5,12
	C11.3,35.3,15.3,37,20,37z"/>
</svg>
