<?xml version="1.0" encoding="utf-8"?>
<!-- Generator: Adobe Illustrator 26.1.0, SVG Export Plug-In . SVG Version: 6.00 Build 0)  -->
<svg version="1.1" id="Calque_1" xmlns="http://www.w3.org/2000/svg" xmlns:xlink="http://www.w3.org/1999/xlink" x="0px" y="0px"
	 viewBox="0 0 16 12.7" style="enable-background:new 0 0 16 12.7;" xml:space="preserve">
<path d="M7.8,3.2C7.9,3.1,8,2.8,7.9,2.6C7.9,2.5,7.8,2.3,7.7,2.2L7.6,2.1C7.6,1.9,7.5,1.8,7.4,1.7C7.3,1.5,7,1.4,6.8,1.5L6.1,1.8
	C5.8,1.5,5.5,1.3,5.1,1.2L5,0.5c0-0.2-0.2-0.4-0.5-0.5C4.3,0,4.2,0,4,0h0C3.8,0,3.6,0,3.5,0C3.2,0.1,3,0.2,3,0.5L2.8,1.2
	C2.5,1.4,2.2,1.5,1.9,1.8L1.2,1.5C1,1.4,0.7,1.5,0.6,1.7C0.5,1.8,0.4,1.9,0.3,2.1L0.2,2.2C0.2,2.3,0.1,2.5,0,2.6
	c-0.1,0.2,0,0.5,0.2,0.6l0.6,0.5c0,0.2,0,0.3,0,0.5s0,0.4,0,0.5L0.2,5.3C0,5.5-0.1,5.7,0,6c0.1,0.1,0.1,0.3,0.2,0.4l0.1,0.1
	c0.1,0.1,0.2,0.3,0.3,0.4C0.7,7,1,7.1,1.2,7l0.7-0.2C2.2,7,2.5,7.2,2.8,7.3L3,8.1c0,0.2,0.2,0.4,0.5,0.5c0.2,0,0.3,0,0.5,0
	s0.3,0,0.5,0c0.2,0,0.4-0.2,0.5-0.5l0.2-0.7C5.5,7.2,5.8,7,6,6.8L6.8,7C7,7.1,7.2,7,7.4,6.9c0.1-0.1,0.2-0.2,0.2-0.4l0.1-0.1
	c0.1-0.1,0.1-0.3,0.2-0.4c0.1-0.2,0-0.5-0.2-0.6L7.2,4.8c0-0.2,0-0.4,0-0.5s0-0.4,0-0.5L7.8,3.2L7.8,3.2z M2.8,4.3
	c0-0.7,0.5-1.2,1.2-1.2s1.2,0.5,1.2,1.2S4.7,5.5,4,5.5S2.8,5,2.8,4.3z M12.8,12.5c0.2,0.2,0.4,0.3,0.6,0.2c0.1-0.1,0.3-0.1,0.4-0.2
	l0.1-0.1c0.1-0.1,0.3-0.2,0.4-0.2c0.2-0.1,0.3-0.4,0.2-0.6l-0.2-0.7c0.2-0.3,0.4-0.6,0.5-0.9l0.7-0.2c0.2,0,0.4-0.2,0.5-0.5
	c0-0.2,0-0.3,0-0.5c0-0.2,0-0.3,0-0.5c0-0.2-0.2-0.4-0.5-0.5l-0.7-0.2c-0.1-0.3-0.3-0.6-0.5-0.9L14.5,6c0.1-0.2,0-0.5-0.2-0.6
	c-0.1-0.1-0.2-0.2-0.4-0.3L13.8,5c-0.1-0.1-0.3-0.1-0.4-0.2c-0.2-0.1-0.5,0-0.6,0.2l-0.5,0.6c-0.2,0-0.4,0-0.5,0s-0.4,0-0.5,0
	L10.7,5c-0.2-0.2-0.4-0.3-0.6-0.2C9.9,4.9,9.8,4.9,9.7,5L9.5,5.1C9.4,5.2,9.3,5.3,9.1,5.3C9,5.5,8.9,5.7,9,6l0.2,0.7
	C9,7,8.8,7.3,8.7,7.6L7.9,7.8C7.7,7.8,7.5,8,7.5,8.2c0,0.2,0,0.3,0,0.5c0,0.2,0,0.3,0,0.5c0,0.2,0.2,0.4,0.5,0.5l0.7,0.2
	c0.1,0.3,0.3,0.6,0.5,0.9L9,11.5c-0.1,0.2,0,0.5,0.2,0.6c0.1,0.1,0.2,0.2,0.4,0.2l0.1,0.1c0.1,0.1,0.3,0.1,0.4,0.2
	c0.2,0.1,0.5,0,0.6-0.2l0.5-0.6c0.2,0,0.4,0,0.5,0c0.2,0,0.4,0,0.5,0L12.8,12.5L12.8,12.5z M11.7,7.5c0.7,0,1.2,0.5,1.2,1.2
	c0,0.7-0.5,1.2-1.2,1.2l0,0c-0.7,0-1.2-0.5-1.2-1.2C10.5,8.1,11,7.5,11.7,7.5z"/>
</svg>
