<?xml version="1.0" encoding="utf-8"?>
<!-- Generator: Adobe Illustrator 26.1.0, SVG Export Plug-In . SVG Version: 6.00 Build 0)  -->
<svg version="1.1" id="Calque_1" xmlns="http://www.w3.org/2000/svg" xmlns:xlink="http://www.w3.org/1999/xlink" x="0px" y="0px"
	 viewBox="0 0 16 11.2" style="enable-background:new 0 0 16 11.2;" xml:space="preserve">
<path d="M2.4,1.6v5.6c0,0.9,0.7,1.6,1.6,1.6h10.4c0.9,0,1.6-0.7,1.6-1.6V1.6C16,0.7,15.3,0,14.4,0H4C3.1,0,2.4,0.7,2.4,1.6z M4,5.6
	c0.9,0,1.6,0.7,1.6,1.6H4V5.6z M5.6,1.6c0,0.9-0.7,1.6-1.6,1.6V1.6H5.6z M14.4,5.6v1.6h-1.6C12.8,6.3,13.5,5.6,14.4,5.6z M12.8,1.6
	h1.6v1.6C13.5,3.2,12.8,2.5,12.8,1.6z M7.2,4.4c0-1.1,0.9-2,2-2s2,0.9,2,2s-0.9,2-2,2S7.2,5.5,7.2,4.4z M1.2,2.2
	c0-0.3-0.3-0.6-0.6-0.6S0,1.9,0,2.2v6c0,1.7,1.3,3,3,3h10c0.3,0,0.6-0.3,0.6-0.6c0-0.3-0.3-0.6-0.6-0.6H3c-1,0-1.8-0.8-1.8-1.8V2.2z
	"/>
</svg>
