<?xml version="1.0" encoding="utf-8"?>
<!-- Generator: Adobe Illustrator 26.1.0, SVG Export Plug-In . SVG Version: 6.00 Build 0)  -->
<svg version="1.1" id="Calque_1" xmlns="http://www.w3.org/2000/svg" xmlns:xlink="http://www.w3.org/1999/xlink" x="0px" y="0px"
	 width="50px" height="50px" viewBox="0 0 50 50" style="enable-background:new 0 0 50 50;" xml:space="preserve">
<style type="text/css">
	.st0{fill:#E8EAED;}
</style>
<path class="st0" d="M25,38.8c0.6,0,1.2-0.2,1.7-0.7s0.7-1.1,0.7-1.7s-0.2-1.2-0.7-1.7S25.6,34,25,34s-1.2,0.2-1.7,0.7
	s-0.7,1.1-0.7,1.7s0.2,1.2,0.7,1.7S24.4,38.8,25,38.8z M25,28.8c0.6,0,1.1-0.2,1.5-0.6c0.4-0.4,0.6-0.9,0.6-1.5V12.6
	c0-0.6-0.2-1.1-0.6-1.5c-0.4-0.4-0.9-0.6-1.5-0.6s-1.1,0.2-1.5,0.6c-0.4,0.4-0.6,0.9-0.6,1.5v14.1c0,0.6,0.2,1.1,0.6,1.5
	C23.9,28.6,24.4,28.8,25,28.8z M16.3,50c-0.6,0-1.1-0.1-1.6-0.3c-0.5-0.2-1-0.5-1.4-0.9L1.2,36.7c-0.4-0.4-0.7-0.8-0.9-1.4
	C0.1,34.8,0,34.2,0,33.7V16.3c0-0.6,0.1-1.1,0.3-1.6c0.2-0.5,0.5-1,0.9-1.4L13.3,1.2c0.4-0.4,0.8-0.7,1.4-0.9S15.8,0,16.3,0h17.4
	c0.6,0,1.1,0.1,1.6,0.3s1,0.5,1.4,0.9l12.1,12.1c0.4,0.4,0.7,0.8,0.9,1.4s0.3,1.1,0.3,1.6v17.4c0,0.6-0.1,1.1-0.3,1.6
	s-0.5,1-0.9,1.4L36.7,48.8c-0.4,0.4-0.8,0.7-1.4,0.9c-0.5,0.2-1.1,0.3-1.6,0.3H16.3z M16.3,45.8h17.4l12.2-12.2V16.3L33.7,4.2H16.3
	L4.2,16.3v17.4L16.3,45.8z"/>
</svg>
