<?xml version="1.0" encoding="utf-8"?>
<!-- Generator: Adobe Illustrator 26.1.0, SVG Export Plug-In . SVG Version: 6.00 Build 0)  -->
<svg version="1.1" id="Calque_1" xmlns="http://www.w3.org/2000/svg" xmlns:xlink="http://www.w3.org/1999/xlink" x="0px" y="0px"
	 width="60px" height="60px" viewBox="0 0 60 60" style="enable-background:new 0 0 60 60;" xml:space="preserve">
<style type="text/css">
	.st0{fill:#E8EAED;}
</style>
<path class="st0" d="M30,46.6c0.8,0,1.5-0.3,2-0.9c0.6-0.6,0.9-1.3,0.9-2s-0.3-1.5-0.9-2c-0.6-0.6-1.3-0.9-2-0.9s-1.5,0.3-2,0.9
	c-0.6,0.6-0.9,1.3-0.9,2s0.3,1.5,0.9,2C28.5,46.3,29.2,46.6,30,46.6z M30,34.6c0.7,0,1.3-0.2,1.8-0.7c0.5-0.5,0.7-1.1,0.7-1.8V15.2
	c0-0.7-0.2-1.3-0.7-1.8c-0.5-0.5-1.1-0.7-1.8-0.7s-1.3,0.2-1.8,0.7s-0.7,1.1-0.7,1.8v16.9c0,0.7,0.2,1.3,0.7,1.8S29.3,34.6,30,34.6z
	 M19.6,60c-0.7,0-1.3-0.1-2-0.4c-0.6-0.3-1.2-0.6-1.6-1.1L1.5,44c-0.4-0.4-0.8-1-1.1-1.6c-0.3-0.6-0.4-1.3-0.4-2V19.6
	c0-0.7,0.1-1.3,0.4-2C0.7,17,1.1,16.4,1.5,16L16,1.5c0.4-0.4,1-0.8,1.6-1.1s1.3-0.4,2-0.4h20.8c0.7,0,1.3,0.1,2,0.4s1.2,0.6,1.6,1.1
	L58.5,16c0.4,0.4,0.8,1,1.1,1.6c0.3,0.6,0.4,1.3,0.4,2v20.8c0,0.7-0.1,1.3-0.4,2c-0.3,0.6-0.6,1.2-1.1,1.6L44,58.5
	c-0.4,0.4-1,0.8-1.6,1.1c-0.6,0.3-1.3,0.4-2,0.4H19.6z M19.6,55h20.8L55,40.4V19.6L40.4,5H19.6L5,19.6v20.8L19.6,55z"/>
</svg>
