<?xml version="1.0" encoding="utf-8"?>
<!-- Generator: Adobe Illustrator 26.1.0, SVG Export Plug-In . SVG Version: 6.00 Build 0)  -->
<svg version="1.1" id="Calque_1" xmlns="http://www.w3.org/2000/svg" xmlns:xlink="http://www.w3.org/1999/xlink" x="0px" y="0px"
	 viewBox="0 0 16 17.5" style="enable-background:new 0 0 16 17.5;" xml:space="preserve">
<path d="M4.8,3.5C4.3,3.5,3.9,3.3,3.6,3S3.1,2.2,3.1,1.8s0.2-0.9,0.5-1.2S4.3,0,4.8,0s0.9,0.2,1.2,0.5c0.3,0.3,0.5,0.8,0.5,1.2
	S6.4,2.6,6.1,3C5.7,3.3,5.3,3.5,4.8,3.5z M9.6,15.8H4c-0.5,0-0.9-0.2-1.3-0.5S2,14.5,1.9,14L0,4.4h1.8L3.7,14h5.9V15.8z M14.5,17.5
	l-2.5-4.4H5.8c-0.4,0-0.8-0.1-1.1-0.4s-0.5-0.6-0.6-1l-1-4.7C3,6.4,3.2,5.7,3.6,5.2s1.1-0.8,1.8-0.8c0.5,0,1,0.2,1.4,0.5
	c0.4,0.3,0.7,0.7,0.8,1.2l1,4.4h2.8c0.3,0,0.6,0.1,0.9,0.2c0.3,0.2,0.5,0.4,0.6,0.6l3.1,5.3L14.5,17.5z"/>
</svg>
