<?xml version="1.0" encoding="utf-8"?>
<!-- Generator: Adobe Illustrator 26.1.0, SVG Export Plug-In . SVG Version: 6.00 Build 0)  -->
<svg version="1.1" id="Calque_1" xmlns="http://www.w3.org/2000/svg" xmlns:xlink="http://www.w3.org/1999/xlink" x="0px" y="0px"
	 viewBox="0 0 16 14" style="enable-background:new 0 0 16 14;" xml:space="preserve">
<path d="M2,3.1C2,2.5,2.5,2,3.1,2c0.3,0,0.6,0.1,0.8,0.3l0.5,0.5C3.8,4.1,3.9,5.6,4.8,6.7l0,0C4.4,7,4.4,7.5,4.7,7.8s0.8,0.3,1.1,0
	l5-5c0.3-0.3,0.3-0.8,0-1.1s-0.8-0.3-1.1,0l0,0c-1.1-0.9-2.6-1-3.8-0.3L5.3,0.9C4.7,0.3,4,0,3.1,0C1.4,0,0,1.4,0,3.1V13
	c0,0.6,0.4,1,1,1s1-0.4,1-1V3.1z M8,10c0.6,0,1-0.4,1-1S8.6,8,8,8S7,8.4,7,9S7.4,10,8,10z M10,12c0-0.6-0.4-1-1-1s-1,0.4-1,1
	s0.4,1,1,1S10,12.6,10,12z M10,8c0.6,0,1-0.4,1-1s-0.4-1-1-1S9,6.4,9,7S9.4,8,10,8z M12,10c0-0.6-0.4-1-1-1s-1,0.4-1,1s0.4,1,1,1
	S12,10.6,12,10z M12,6c0.6,0,1-0.4,1-1s-0.4-1-1-1s-1,0.4-1,1S11.4,6,12,6z M14,8c0-0.6-0.4-1-1-1s-1,0.4-1,1s0.4,1,1,1S14,8.6,14,8
	z M15,7c0.6,0,1-0.4,1-1s-0.4-1-1-1s-1,0.4-1,1S14.4,7,15,7z"/>
</svg>
