<?xml version="1.0" encoding="utf-8"?>
<!-- Generator: Adobe Illustrator 26.1.0, SVG Export Plug-In . SVG Version: 6.00 Build 0)  -->
<svg version="1.1" id="Calque_1" xmlns="http://www.w3.org/2000/svg" xmlns:xlink="http://www.w3.org/1999/xlink" x="0px" y="0px"
	 viewBox="0 0 14 16" style="enable-background:new 0 0 14 16;" xml:space="preserve">
<path d="M0.8,0C0.3,0,0,0.3,0,0.8s0.3,0.8,0.8,0.8H1v4.7c-0.1,0-0.1,0.1-0.2,0.1C0.3,6.7,0,7.3,0,8c0,1.5,0.4,2.6,1.2,3.5
	c0.4,0.6,1,1,1.5,1.3l-0.6,1.9C1.9,15,2,15.3,2.2,15.6C2.4,15.8,2.7,16,3,16h8c0.3,0,0.6-0.2,0.8-0.4s0.2-0.6,0.1-0.9l-0.6-1.9
	c0.5-0.3,1.1-0.8,1.5-1.3c0.7-0.9,1.2-2,1.2-3.5c0-0.7-0.3-1.3-0.8-1.7c-0.1,0-0.1-0.1-0.2-0.1l0-4.7h0.2c0.4,0,0.8-0.3,0.8-0.8
	S13.7,0,13.3,0H0.8z M12,8c0,0,0,0.1-0.1,0.2c-0.1,0.1-0.4,0.3-0.9,0.4C10,8.9,8.6,9,7,9S4,8.9,3,8.6C2.6,8.5,2.3,8.3,2.1,8.2
	C2,8.1,2,8,2,8v0v0c0,0,0-0.1,0.1-0.2C2.3,7.7,2.6,7.5,3,7.4C4,7.1,5.4,7,7,7s3,0.1,4,0.4c0.5,0.1,0.8,0.3,0.9,0.4C12,7.9,12,8,12,8
	L12,8L12,8L12,8z M10.3,12L10.3,12L10.3,12L10.3,12z M3.5,2h1C4.8,2,5,2.2,5,2.5S4.8,3,4.5,3h-1C3.2,3,3,2.8,3,2.5S3.2,2,3.5,2z"/>
</svg>
