<?xml version="1.0" encoding="utf-8"?>
<!-- Generator: Adobe Illustrator 26.1.0, SVG Export Plug-In . SVG Version: 6.00 Build 0)  -->
<svg version="1.1" id="Calque_1" xmlns="http://www.w3.org/2000/svg" xmlns:xlink="http://www.w3.org/1999/xlink" x="0px" y="0px"
	 width="60px" height="52.5px" viewBox="0 0 60 52.5" style="enable-background:new 0 0 60 52.5;" xml:space="preserve">
<style type="text/css">
	.st0{fill:#FFFF00;}
</style>
<g>
	<path class="st0" d="M4.7,52c-1.5,0-2.9-0.8-3.6-2.1c-0.7-1.3-0.7-2.9,0-4.2L26.4,2.6c0.7-1.3,2.1-2.1,3.6-2.1s2.9,0.8,3.6,2.1
		l25.3,43.1c0.8,1.3,0.8,2.9,0,4.2c-0.7,1.3-2.1,2.1-3.6,2.1H4.7z M30,37c-2.3,0-4.3,1.9-4.3,4.2s1.9,4.2,4.3,4.2s4.2-1.9,4.2-4.2
		S32.3,37,30,37z M30,14.5c-1.8,0-3.3,1.5-3.3,3.3v13.1c0,1.8,1.5,3.3,3.3,3.3c1.8,0,3.3-1.5,3.3-3.3V17.8
		C33.3,16,31.8,14.5,30,14.5z"/>
	<path d="M30,1c1.3,0,2.5,0.7,3.2,1.8L58.5,46c0.7,1.1,0.7,2.5,0,3.7c-0.7,1.1-1.9,1.9-3.2,1.9H4.7c-1.3,0-2.5-0.7-3.2-1.9
		c-0.7-1.1-0.6-2.6,0-3.7L26.8,2.8C27.5,1.7,28.7,1,30,1 M30,34.8c2.1,0,3.8-1.7,3.8-3.8V17.8c0-2.1-1.7-3.8-3.8-3.8
		c-2.1,0-3.8,1.7-3.8,3.8v13.1C26.2,33,27.9,34.8,30,34.8 M30,46c2.6,0,4.8-2.1,4.8-4.8c0-2.6-2.1-4.8-4.8-4.8
		c-2.6,0-4.8,2.1-4.8,4.8C25.2,43.9,27.4,46,30,46 M30,0c-1.7,0-3.2,0.9-4,2.3L0.6,45.4c-0.8,1.4-0.9,3.2,0,4.7s2.4,2.4,4.1,2.4
		h50.6c1.7,0,3.2-0.9,4.1-2.4c0.8-1.5,0.8-3.2,0-4.7L34,2.3C33.2,0.9,31.7,0,30,0L30,0z M30,33.8c-1.6,0-2.8-1.3-2.8-2.8V17.8
		c0-1.6,1.3-2.8,2.8-2.8c1.6,0,2.8,1.3,2.8,2.8v13.1C32.8,32.5,31.6,33.8,30,33.8L30,33.8z M30,45c-2.1,0-3.8-1.7-3.8-3.8
		c0-2.1,1.7-3.8,3.8-3.8c2.1,0,3.8,1.7,3.8,3.8C33.7,43.3,32.1,45,30,45L30,45z"/>
</g>
</svg>
