<?xml version="1.0" encoding="utf-8"?>
<!-- Generator: Adobe Illustrator 26.1.0, SVG Export Plug-In . SVG Version: 6.00 Build 0)  -->
<svg version="1.1" id="Calque_1" xmlns="http://www.w3.org/2000/svg" xmlns:xlink="http://www.w3.org/1999/xlink" x="0px" y="0px"
	 viewBox="0 0 16 11.2" style="enable-background:new 0 0 16 11.2;" xml:space="preserve">
<path d="M1.6,1.8V4H4V1.6H1.8C1.7,1.6,1.6,1.7,1.6,1.8z M13.6,4l-2-2.4h-2V4H13.6z M8,4V1.6H5.6V4H8z M14.8,8.8h-0.4
	c0,1.3-1.1,2.4-2.4,2.4s-2.4-1.1-2.4-2.4H6.4c0,1.3-1.1,2.4-2.4,2.4s-2.4-1.1-2.4-2.4H1.2C0.5,8.8,0,8.3,0,7.6V1.8
	C0,0.8,0.8,0,1.8,0h3h4h2.8c0.5,0,0.9,0.2,1.2,0.6l2.8,3.3c0.2,0.3,0.4,0.7,0.4,1v2.7C16,8.3,15.5,8.8,14.8,8.8z M13.2,8.8
	c0-0.7-0.5-1.2-1.2-1.2s-1.2,0.5-1.2,1.2S11.3,10,12,10S13.2,9.5,13.2,8.8z M4,10c0.7,0,1.2-0.5,1.2-1.2S4.7,7.6,4,7.6
	S2.8,8.1,2.8,8.8S3.3,10,4,10z"/>
</svg>
